HIERARCHY
ROOT hip
{
	OFFSET 0.000000 0.000000 0.000000 
	CHANNELS 6 Xposition Yposition Zposition Xrotation Zrotation Yrotation
	JOINT abdomen
	{
		OFFSET 0.000000 3.402643 0.000000 
		CHANNELS 3 Xrotation Zrotation Yrotation
		JOINT chest
		{
			OFFSET 0.000000 8.438565 -0.680529 
			CHANNELS 3 Xrotation Zrotation Yrotation
			JOINT neck
			{
				OFFSET 0.000000 10.207942 -0.272212 
				CHANNELS 3 Xrotation Zrotation Yrotation
				JOINT head
				{
					OFFSET 0.000000 3.130431 0.000000 
					CHANNELS 3 Xrotation Zrotation Yrotation
					End Site
					{
						OFFSET 0.000000 3.130435 0.000000 
					}
				}
			}
			JOINT lCollar
			{
				OFFSET 3.470700 6.669187 -0.816635 
				CHANNELS 3 Yrotation Zrotation Xrotation
				JOINT lShldr
				{
					OFFSET 3.198488 0.000000 0.000000 
					CHANNELS 3 Zrotation Yrotation Xrotation
					JOINT lForeArm
					{
						OFFSET 10.139888 0.000000 0.000000 
						CHANNELS 3 Yrotation Zrotation Xrotation
						JOINT lHand
						{
							OFFSET 8.370511 0.000000 0.000000 
							CHANNELS 3 Zrotation Yrotation Xrotation
							End Site
							{
								OFFSET 4.083176 0.000000 0.000000 
							}
						}
					}
				}
			}
			JOINT rCollar
			{
				OFFSET -3.470700 6.669187 -0.816635 
				CHANNELS 3 Yrotation Zrotation Xrotation
				JOINT rShldr
				{
					OFFSET -3.198488 0.000000 0.000000 
					CHANNELS 3 Zrotation Yrotation Xrotation
					JOINT rForeArm
					{
						OFFSET -10.139888 0.000000 0.000000 
						CHANNELS 3 Yrotation Zrotation Xrotation
						JOINT rHand
						{
							OFFSET -8.370511 0.000000 0.000000 
							CHANNELS 3 Zrotation Yrotation Xrotation
							End Site
							{
								OFFSET -4.083176 0.000000 0.000000 
							}
						}
					}
				}
			}
		}
	}
	JOINT lThigh
	{
		OFFSET 5.308129 -1.633274 1.361059 
		CHANNELS 3 Xrotation Zrotation Yrotation
		JOINT lShin
		{
			OFFSET -2.041588 -20.007561 0.000000 
			CHANNELS 3 Xrotation Zrotation Yrotation
			JOINT lFoot
			{
				OFFSET 0.000000 -19.190928 -1.224953 
				CHANNELS 3 Xrotation Yrotation Zrotation
				End Site
				{
					OFFSET 0.000000 -2.449906 4.627600 
				}
			}
		}
	}
	JOINT rThigh
	{
		OFFSET -5.308129 -1.633274 1.361059 
		CHANNELS 3 Xrotation Zrotation Yrotation
		JOINT rShin
		{
			OFFSET 2.041588 -20.007561 0.000000 
			CHANNELS 3 Xrotation Zrotation Yrotation
			JOINT rFoot
			{
				OFFSET 0.000000 -19.190928 -1.224953 
				CHANNELS 3 Xrotation Yrotation Zrotation
				End Site
				{
					OFFSET 0.000000 -2.449906 4.627600 
				}
			}
		}
	}
}
MOTION
Frames: 18
Frame Time: 0.033333
-68.217567 47.301311 -52.261330 7.197266 1.406250 54.492428 44.589840 -6.542968 -14.785157 -9.619140 8.720703 -9.480942 -9.033203 1.181641 0.927734 11.874999 0.996094 1.318359 -5.439453 -3.886719 -0.009104 -68.505859 -38.759766 -0.634766 -105.625000 3.828125 48.222656 -30.312500 5.878906 -3.524389 12.929688 -6.318359 0.019531 39.550781 -38.535156 32.626953 67.050781 -3.408203 39.824219 -34.814453 5.712891 -4.238281 -9.021913 0.331621 -0.413486 47.529068 -0.247215 -3.395432 -5.068801 -7.080922 -12.923670 -66.700455 -12.820969 -1.416448 136.105545 -5.458599 1.988237 51.779713 12.029632 -1.603512 
-62.848942 48.176701 -45.795952 4.042969 -0.175781 53.955074 45.537109 -2.890625 -16.758305 -12.783204 11.894531 -13.378906 -8.056641 1.669922 3.701171 13.447267 -2.871094 4.081542 -4.404297 -1.054688 -0.087891 -65.039063 -40.341797 -10.126953 -104.755859 3.828125 50.361332 -20.380859 4.775391 -1.815591 13.994141 -10.361329 -0.095900 25.888672 -44.628906 43.010719 69.941406 -3.525390 43.535156 -39.355469 5.849610 -4.950175 1.894705 6.395160 0.016987 44.556889 -0.559506 -3.223125 7.177427 -5.850143 -11.319201 -72.374504 -7.568528 3.646831 121.287453 -5.083217 2.583630 40.241955 6.859279 6.644993 
-57.314762 49.334877 -39.211353 1.757813 -3.701172 52.889992 43.232422 1.855469 -16.445311 -13.837891 12.246094 -15.673302 -8.300781 3.486328 5.986922 15.742189 -7.978516 6.483019 -2.646484 -0.351563 -0.019531 -62.285156 -36.689453 -13.808595 -105.029297 3.906250 52.616520 -5.468750 2.949219 -0.351060 15.986329 -14.677735 -0.095181 22.158203 -51.669922 47.685547 74.345703 -2.265625 23.935549 -36.074223 17.460938 -12.539061 10.852818 13.324401 7.962387 42.819813 -0.661105 -2.623007 26.895571 -4.418743 -10.371021 -71.675346 -4.062403 4.280829 98.941437 -3.730070 3.413628 31.750664 0.310803 11.708984 
-51.868103 50.145679 -33.031219 1.572266 -5.458984 50.799854 41.308590 3.798828 -16.337891 -12.607422 12.246524 -16.364677 -9.316406 5.898438 7.051784 14.853515 -11.142578 8.076172 -2.470703 -0.878906 -0.038913 -62.451172 -30.302732 -13.154297 -107.158203 3.701172 46.786476 -1.660156 11.757869 -0.349574 15.166017 -14.238280 -0.046426 25.039063 -55.019531 40.156250 78.115234 -2.978516 34.892578 -35.878910 9.472657 -6.904297 15.080474 13.326234 9.785057 51.257313 -0.162585 -2.992227 34.368740 -13.347707 -3.835666 -66.488350 -3.906930 5.511193 72.803230 -1.549586 3.628189 25.909277 -1.038733 12.274590 
-46.225689 50.157967 -26.976744 2.636719 -2.812478 47.978260 40.947266 2.050781 -16.591799 -12.080078 11.533204 -15.654297 -6.669922 5.009766 7.080931 13.613281 -13.066407 7.927479 -4.746094 -2.294922 -0.009375 -65.380859 -19.658203 -11.409534 -105.263672 3.632813 45.039063 3.857422 18.212893 1.106570 14.023438 -9.638673 -0.107422 34.335938 -56.044922 25.714556 81.816406 -2.880859 34.189453 -35.068359 8.466797 -6.181640 17.312548 7.168261 8.164449 66.535454 0.265831 -3.511070 47.434322 -22.784649 9.781825 -55.431213 -6.006042 6.374979 46.123936 -0.068430 3.202368 23.229977 1.018693 11.468143 
-40.457634 49.595203 -20.596191 1.572266 0.000000 45.693359 41.152344 1.337891 -15.273210 -9.082031 11.708984 -13.689425 -5.058593 1.669922 7.500283 11.318359 -13.242188 8.161826 -5.273437 -3.701171 -0.155620 -70.595703 -10.419922 -7.140438 -100.175781 3.388672 42.519531 9.453124 24.931643 4.042969 11.552734 -4.863281 -0.078126 47.343750 -48.808594 10.527343 85.468750 -2.851563 34.014160 -35.410156 7.666016 -5.692056 18.596912 2.461324 8.656169 86.165428 1.738425 -4.146192 52.581768 -21.926935 12.262567 -43.725842 -7.733483 0.853903 32.433163 0.600077 2.455307 23.108467 2.276319 10.975991 
-34.928951 48.627499 -14.115605 -0.537109 -1.064455 43.056412 38.613277 2.490234 -10.849610 -7.666016 13.105468 -10.156250 -2.529297 -2.363281 6.474206 10.791015 -13.945313 6.767579 -5.781250 -6.357422 -0.097656 -74.853516 -1.298828 -0.839844 -88.525391 3.349610 41.962894 12.958984 28.935547 6.352381 9.658203 -0.556641 -0.087796 51.708984 -37.500000 6.693275 89.023438 -2.734375 30.820313 -35.009766 8.212892 -6.035157 14.744969 2.812869 13.012459 107.226593 2.958578 -3.944049 48.993824 -14.442080 2.897960 -35.832069 -6.336086 -7.235457 34.907372 0.523022 2.178753 21.249258 2.381634 11.280514 
-29.738747 47.661205 -7.553469 -2.285156 -3.691406 40.781250 36.044922 4.189453 -5.262959 -8.369141 13.984376 -5.771485 0.332031 -3.750000 4.462891 9.726563 -13.593749 4.863281 -5.937500 -8.115234 -0.126953 -75.996094 9.326173 7.169552 -74.345703 3.027344 37.587379 16.357424 27.089846 7.582573 8.076172 2.285156 -0.156639 54.736328 -22.958982 8.632813 93.789063 -2.343750 27.314850 -36.572269 10.371093 -7.773438 4.085818 6.711453 15.992826 126.057564 3.921206 -3.188639 54.374447 -14.480920 5.589099 -28.062050 -3.856247 -11.935845 41.242859 0.624781 2.173128 6.658100 7.172308 11.043492 
-25.434464 46.978745 -1.630852 -4.394531 -7.568360 38.671875 36.757813 6.181641 0.704176 -9.423828 14.345704 -1.208518 -1.464844 -4.296875 3.691406 9.550781 -14.648437 3.981905 -6.123047 -8.291017 -0.166016 -73.730469 20.761721 13.076173 -68.779305 3.359375 40.449219 15.175782 24.228518 6.449322 9.648438 3.544922 -0.078125 57.021484 -2.929688 11.503407 99.199219 -2.070312 24.023436 -34.697266 9.199219 -6.531641 -18.465994 12.811706 12.019479 139.603653 4.810390 -2.324473 66.533852 -20.814276 24.947626 -23.150419 2.616916 -8.801412 48.414295 0.123597 3.200299 -2.042481 2.464718 11.740174 
-20.885881 47.112591 3.975985 -4.228463 -8.095604 36.024357 38.417965 4.648438 5.253906 -9.960938 12.236328 3.525391 -3.251953 -3.261719 1.991632 9.726563 -13.066406 2.400136 -6.132813 -6.005859 -0.106400 -66.181641 31.269531 22.783205 -71.103516 2.851562 34.541016 18.613283 24.697268 8.041190 12.460938 2.509766 -0.019531 59.902344 15.654299 10.214845 105.302734 -2.119140 24.550781 -34.443363 7.529296 -5.302735 -45.604954 11.718968 3.411334 140.825516 4.934978 -2.320875 73.051193 -19.700537 32.832756 -14.178342 4.178687 -4.404347 49.656040 0.113764 2.924116 -5.327909 3.210142 12.462398 
-15.579970 47.826054 10.009985 -1.943359 -6.162110 35.858322 37.421875 1.376953 8.340077 -10.498048 10.126954 7.558594 -1.201172 -2.382813 -1.103516 9.736328 -10.957032 -0.751953 -7.031250 -3.710938 -0.097024 -54.765625 39.599609 33.980835 -76.552734 2.646484 33.183144 17.500000 24.785158 7.539062 11.416016 -1.279297 -0.107204 62.734371 26.630857 6.142579 112.177734 -2.128906 25.723017 -34.179688 7.216797 -5.018305 -62.285690 4.716197 -2.285018 131.503555 4.737123 -2.744756 57.848526 -13.423761 5.697501 -3.727189 0.477858 -2.024322 48.244953 0.250666 3.072116 -1.937224 3.538219 12.157518 
-9.667997 48.859276 16.372990 -0.175781 -3.691406 35.683594 36.083984 -1.835938 11.083670 -9.970703 8.720703 11.435548 -0.185547 -2.832031 -3.701171 9.736328 -9.375000 -3.212891 -8.085938 -2.470703 -0.166016 -44.296875 47.197266 39.831383 -82.304688 2.529297 29.267580 16.201172 23.378906 6.572266 8.759767 -4.111328 -0.077425 62.783203 32.109375 2.441406 117.832031 -2.441406 28.359791 -35.029297 7.626953 -5.576172 -67.016815 -0.361317 -4.746135 114.766426 3.866432 -3.557799 43.587597 -6.264380 -7.387842 6.238576 -6.629341 -7.821910 46.497372 -0.236054 2.801354 12.843728 8.177135 10.148344 
-3.728180 49.583736 22.608931 0.527344 -2.460934 33.212517 34.892578 -3.505860 14.228516 -8.750000 6.074219 14.952205 -0.390625 -4.062500 -5.029297 9.746095 -8.144532 -4.796306 -8.798828 -0.351562 -0.058594 -38.593750 54.140629 39.705181 -86.191406 2.158203 26.191406 17.128906 21.816404 6.634489 7.861328 -5.351563 -0.145576 62.001949 32.460938 0.693359 119.414070 -2.509766 30.371523 -36.259766 5.761718 -4.443359 -66.139153 -0.703113 -6.875573 92.273262 2.255793 -4.408440 41.443203 -6.215264 -7.212741 14.514101 -12.124840 -10.629982 50.528229 -0.598246 2.974354 20.952171 4.898705 10.334059 
1.918904 49.764614 28.719332 -1.064453 -3.173828 30.937502 34.970703 -2.363281 16.337891 -8.408203 3.613281 16.709602 1.015625 -3.847657 -4.902999 9.570312 -7.617188 -4.433594 -7.734374 1.435547 -0.166260 -40.361328 58.251953 35.146484 -87.519531 2.119141 24.706671 18.261719 22.089844 7.132581 8.935546 -4.453125 -0.009766 62.636715 28.388672 3.027344 115.703133 -2.724609 32.119602 -37.119141 3.261719 -2.675781 -60.485752 2.295071 -10.365551 67.373062 0.527517 -3.916360 38.895378 -7.963546 -6.466652 18.693348 -13.501746 -7.007909 62.126896 -0.949765 3.260060 27.642708 6.905842 8.882418 
7.458350 49.392441 35.023365 -3.349609 -3.173828 30.585400 35.644531 -0.839844 16.894529 -8.935546 2.207031 16.523813 3.847656 -2.998047 -4.385315 9.042969 -6.914062 -3.721879 -6.855469 0.537109 -0.117279 -44.941406 59.130859 28.787683 -89.970703 1.953125 22.548494 19.316406 21.562502 7.249685 10.527344 -2.695313 -0.038603 64.296875 19.941404 6.171875 108.896484 -2.666016 32.764126 -39.140625 2.373047 -2.050377 -49.703281 5.790868 -11.482911 39.973370 -0.572486 -3.180150 34.380920 -5.219990 -9.224341 21.847218 -14.204734 -4.117506 77.386383 -2.004164 3.440648 35.813328 16.185905 1.287877 
13.204533 48.481133 41.637447 -5.283204 -1.943359 31.464844 34.873047 -0.742188 14.785028 -7.343750 5.546875 14.794924 5.214844 -5.566407 -3.038057 8.691406 -5.859375 -2.481466 -5.087891 -4.414062 -0.029297 -55.029297 55.703129 18.388672 -93.710938 1.972656 22.392576 19.433594 21.191408 7.249626 11.386720 -3.964844 -0.096981 65.048828 9.765625 9.396189 101.933594 -2.705079 32.773438 -41.337891 -5.332032 4.403389 -38.324856 7.528731 -8.154688 20.445463 -1.348119 -2.238645 39.116196 -6.867194 -7.581182 25.305111 -15.376868 -3.809634 92.297623 -3.244349 3.282969 41.426800 18.398340 -2.306585 
19.004889 47.299206 48.186954 -6.689453 -2.285201 31.454193 32.861328 0.781250 12.685518 -6.992188 5.546875 12.158203 6.650391 -5.019531 -1.542969 9.042969 -4.980468 -1.084832 -2.998047 -6.855530 -0.184383 -63.623047 47.968750 10.312499 -95.341797 2.021484 23.837891 22.050781 13.476563 5.253906 10.517579 -3.417969 -0.087308 66.992188 -0.791016 12.538926 91.679688 -3.056641 35.527863 -41.943359 -4.755859 3.944504 -32.971130 9.099370 -0.898387 23.799549 -1.246770 -2.244996 37.058563 -9.450974 -5.885058 24.369127 -16.850412 -2.708005 108.089699 -4.483547 3.366160 39.933495 17.246895 -0.795655 
24.845957 46.381817 53.985779 -5.097656 -2.294922 28.817968 30.146484 0.771484 10.205187 -7.880858 2.207031 9.853891 7.783204 -1.787109 -0.166320 7.988281 -5.146484 0.527344 -1.250000 -8.085938 -0.175781 -68.769531 35.146484 5.761719 -93.281250 2.675781 31.328121 22.001951 7.324218 2.812500 9.306641 0.000000 0.000000 66.708984 -10.830078 12.558593 80.917969 -3.544922 41.181641 -37.832031 1.240234 -1.113281 -31.869358 8.718690 6.831060 39.979359 -0.868055 -2.747880 13.742296 -8.035968 -10.748200 11.941683 -21.783142 2.809162 123.605972 -5.450412 2.199920 43.139057 18.459633 -3.418385 
